<?xml version="1.0" encoding="UTF-8" standalone="no"?>
<!-- Created with Inkscape (http://www.inkscape.org/) -->

<svg
   width="166.84509mm"
   height="54.27935mm"
   viewBox="0 0 166.84509 54.27935"
   version="1.1"
   id="svg1"
   xmlns="http://www.w3.org/2000/svg"
   xmlns:svg="http://www.w3.org/2000/svg">
  <defs
     id="defs1">
    <clipPath
       clipPathUnits="userSpaceOnUse"
       id="clipPath987">
      <path
         d="M 0,595.28 H 841.89 V 0 H 0 Z"
         transform="translate(-264.92438,-236.73411)"
         id="path987" />
    </clipPath>
    <clipPath
       clipPathUnits="userSpaceOnUse"
       id="clipPath989">
      <path
         d="M 0,595.28 H 841.89 V 0 H 0 Z"
         transform="translate(-338.99468,-234.1374)"
         id="path989" />
    </clipPath>
    <clipPath
       clipPathUnits="userSpaceOnUse"
       id="clipPath991">
      <path
         d="M 0,595.28 H 841.89 V 0 H 0 Z"
         transform="translate(-422.58939,-263.06711)"
         id="path991" />
    </clipPath>
    <clipPath
       clipPathUnits="userSpaceOnUse"
       id="clipPath993">
      <path
         d="M 0,595.28 H 841.89 V 0 H 0 Z"
         transform="translate(-510.99661,-234.1374)"
         id="path993" />
    </clipPath>
    <clipPath
       clipPathUnits="userSpaceOnUse"
       id="clipPath995">
      <path
         d="M 0,595.28 H 841.89 V 0 H 0 Z"
         transform="translate(-512.83359,-227.8044)"
         id="path995" />
    </clipPath>
    <clipPath
       clipPathUnits="userSpaceOnUse"
       id="clipPath997">
      <path
         d="M 0,595.28 H 841.89 V 0 H 0 Z"
         transform="translate(-616.89512,-239.2029)"
         id="path997" />
    </clipPath>
  </defs>
  <g
     id="layer1"
     transform="translate(-22.389174,-104.03541)">
    <path
       id="path986"
       d="m 0,0 -62.762,-89.54 h 39.171 c 5.945,0 10.517,1.331 13.726,3.963 3.222,2.663 6.079,7.951 8.571,15.914 l 2.305,-0.438 -4.469,-25.182 h -77.576 v 2.582 l 61.177,87.088 h -30.517 c -5.094,0 -8.753,-0.549 -11.015,-1.652 -2.242,-1.106 -3.981,-2.726 -5.167,-4.839 -1.203,-2.104 -2.279,-5.991 -3.245,-11.651 H -72.53 L -70.519,0 Z"
       style="fill:#000000;fill-opacity:1;fill-rule:nonzero;stroke:none"
       transform="matrix(0.35277776,0,0,-0.35277776,50.976167,113.93612)"
       clip-path="url(#clipPath987)" />
    <path
       id="path988"
       d="m 0,0 v -73.97 c -0.96,-10.176 3.271,-13.39 12.673,-9.654 l -0.14,-3.736 c -12.569,-7.479 -21.348,-7.291 -26.338,0.574 l -0.299,5.333 c -6.607,-5.96 -12.557,-9.484 -17.84,-10.59 -5.271,-1.114 -10.984,-1.368 -17.123,-0.799 -9.788,0.105 -15.928,4.994 -18.419,14.689 -1.35,4.323 -2.024,10.362 -2.024,18.132 v 37.712 c 0,3.939 -0.401,6.671 -1.223,8.213 -0.814,1.533 -3.087,3.022 -6.83,4.461 l 22.586,3.587 v -56.265 c 0,-7.866 0.865,-12.952 2.602,-15.263 1.727,-2.297 5.132,-3.877 10.213,-4.751 11.707,-1.145 21.062,1.681 28.058,8.497 v 50.089 c 0,4.797 -0.825,8.027 -2.508,9.712 -1.679,1.676 -5.158,2.615 -10.438,2.809 v 3.303 z"
       style="fill:#000000;fill-opacity:1;fill-rule:nonzero;stroke:none"
       transform="matrix(0.35277776,0,0,-0.35277776,77.10652,114.85218)"
       clip-path="url(#clipPath989)" />
    <path
       id="path990"
       d="m 0,0 5.032,1.732 c -5.859,-4.419 -8.825,-9.11 -8.91,-14.108 0.085,-4.606 1.859,-8.306 5.312,-11.09 5.464,-4.887 8.304,-13.473 8.486,-25.753 -0.966,-21.976 -8.918,-40.199 -23.889,-54.69 -7.672,-8.258 -14.152,-14.054 -19.417,-17.423 h -11.81 l -31.105,78.867 c -1.537,3.744 -3.338,5.96 -5.47,6.625 l 0.158,1.162 h 24.765 l -0.165,-1.162 -4.31,-2.157 v -3.449 l 25.616,-65.212 c 14.88,13.824 23.416,24.711 25.622,32.679 3.556,9.12 5.537,17.983 5.897,26.627 0.2,6.046 -1.673,12.819 -5.612,20.29 l -1.422,8.067 C -11.222,-11.6 -7.489,-5.283 0,0"
       style="fill:#000000;fill-opacity:1;fill-rule:nonzero;stroke:none"
       transform="matrix(0.35277776,0,0,-0.35277776,106.59687,104.64642)"
       clip-path="url(#clipPath991)" />
    <path
       id="path992"
       d="m 0,0 v -73.97 c -0.947,-10.176 3.277,-13.39 12.669,-9.654 l -0.134,-3.736 c -12.576,-7.479 -21.36,-7.291 -26.346,0.574 l -0.29,5.333 c -6.615,-5.96 -12.572,-9.484 -17.847,-10.59 -5.278,-1.114 -10.978,-1.368 -17.118,-0.799 -9.799,0.105 -15.934,4.994 -18.431,14.682 -1.337,4.33 -2.018,10.369 -2.018,18.139 v 37.712 c 0,3.939 -0.395,6.671 -1.215,8.213 -0.816,1.533 -3.101,3.022 -6.834,4.461 l 22.582,3.587 v -56.265 c 0,-7.866 0.87,-12.952 2.602,-15.263 1.726,-2.297 5.131,-3.877 10.22,-4.751 11.701,-1.145 21.061,1.681 28.059,8.497 v 50.089 c 0,4.797 -0.828,8.027 -2.517,9.712 -1.677,1.676 -5.154,2.615 -10.432,2.809 v 3.303 z"
       style="fill:#000000;fill-opacity:1;fill-rule:nonzero;stroke:none"
       transform="matrix(0.35277776,0,0,-0.35277776,137.78498,114.85218)"
       clip-path="url(#clipPath993)" />
    <path
       id="path994"
       d="M 0,0 H 36.551 V -3.174 H 34.83 c -2.588,0 -4.533,-0.534 -5.834,-1.645 -1.302,-1.108 -1.934,-2.476 -1.934,-4.103 0,-2.307 0.955,-5.417 2.87,-9.35 l 19.135,-39.725 17.725,43.601 c 1.034,2.307 1.581,4.547 1.581,6.768 0,1.058 -0.243,1.822 -0.716,2.297 -0.494,0.777 -1.217,1.326 -2.166,1.666 -0.965,0.328 -2.656,0.491 -5.056,0.491 V 0 h 25.488 v -3.174 c -2.115,-0.171 -3.721,-0.608 -4.82,-1.282 -1.094,-0.673 -2.383,-2.018 -3.806,-4.029 -0.486,-0.68 -1.495,-2.823 -3.032,-6.493 L 42.32,-93.557 c -3.076,-7.659 -7.135,-13.478 -12.158,-17.418 -5.039,-3.931 -9.873,-5.893 -14.478,-5.893 -3.454,0 -6.255,0.948 -8.413,2.887 -2.177,1.914 -3.235,4.17 -3.235,6.752 0,2.408 0.79,4.327 2.371,5.757 1.58,1.442 3.72,2.171 6.407,2.171 1.909,0 4.51,-0.579 7.768,-1.726 2.396,-0.949 3.878,-1.459 4.468,-1.459 1.623,0 3.476,0.893 5.539,2.668 2.065,1.781 4.047,5.252 5.962,10.45 l 5.769,13.797 -28.217,59.31 c -0.96,1.823 -2.36,4.074 -4.171,6.759 -1.434,2.02 -2.638,3.368 -3.604,4.036 C 5.094,-4.597 2.967,-3.836 0,-3.174 Z"
       style="fill:#000000;fill-opacity:1;fill-rule:nonzero;stroke:none"
       transform="matrix(0.35277776,0,0,-0.35277776,138.43302,117.08632)"
       clip-path="url(#clipPath995)" />
    <path
       id="path996"
       d="m 0,0 c 4.516,-0.937 8.777,-7.084 12.796,-18.406 l 18.26,-67.481 c 0.79,-1.38 1.715,-3.442 2.749,-6.134 2.436,-2.608 4.479,-3.914 6.137,-3.914 v -1.575 l -17.347,-0.129 -10.589,38.906 c -4.784,2.254 -10.444,2.439 -16.979,0.524 l -6.388,-2.354 c -1.471,-2.621 -0.705,-4.832 2.359,-6.659 v -1.693 h -0.415 c -4.947,0.693 -7.433,2.475 -7.433,5.356 v 1.554 c 1.744,5.746 7.745,9.618 18.024,11.616 l 8.223,1.569 -4.966,20.892 c -6.516,-2.094 -12.564,-7 -18.138,-14.752 -5.836,-8.614 -10.869,-19.978 -15.155,-34.063 v -1.055 c -1.374,-7.219 0.784,-12.143 6.535,-14.76 5.137,-1.037 11.999,-1.681 20.631,-1.95 l 0.378,-0.268 v -2.332 l -0.767,-0.799 h -46.618 l -0.651,0.799 c 4.978,18.698 11.014,33.549 18.14,44.508 3.234,6.965 9.939,15.391 20.114,25.33 3.222,2.34 7.489,4.875 12.783,7.567 l 0.401,1.562 c -2.084,6.255 -4.911,9.392 -8.485,9.392 -1.824,0 -3.168,-2.388 -4.048,-7.168 -1.045,-1.221 -2.037,-1.826 -3.004,-1.826 0.092,8.953 1.873,14.576 5.349,16.838 C -5.562,0.311 -2.882,0.62 0,0"
       style="fill:#000000;fill-opacity:1;fill-rule:nonzero;stroke:none"
       transform="matrix(0.35277776,0,0,-0.35277776,175.14362,113.06518)"
       clip-path="url(#clipPath997)" />
  </g>
</svg>
